<?xml version="1.0" encoding="UTF-8"?>
<svg id="Layer_2" data-name="Layer 2" xmlns="http://www.w3.org/2000/svg" viewBox="0 0 436.73 43.92">
  <defs>
    <style>
      .cls-1 {
        fill: #fff;
      }
    </style>
  </defs>
  <g id="Layer_1-2" data-name="Layer 1">
    <g>
      <path class="cls-1" d="M13.8,1.32h5.94l14.4,42h-5.22l-4.32-13.14h-15.18l-4.14,13.14H0L13.8,1.32ZM10.86,25.56h12.18l-6.24-19.02-5.94,19.02Z"/>
      <path class="cls-1" d="M75.84,43.32V1.32h6.9l16.74,34.8V1.32h5.28v42h-6.9l-16.74-34.8v34.8h-5.28Z"/>
      <path class="cls-1" d="M140.7,43.32h-27.6V1.32h27.6v4.62h-22.32v13.08h18.36v4.62h-18.36v14.76h22.32v4.92Z"/>
      <path class="cls-1" d="M152.34,1.32l1.32,32.82,7.2-19.68h5.28l7.2,19.68,1.32-32.82h5.22l-2.94,42h-5.22l-8.22-24.3-8.22,24.3h-5.22l-2.94-42h5.22Z"/>
      <path class="cls-1" d="M220.61,43.92L248.15,0h4.62l-27.6,43.92h-4.56Z"/>
      <path class="cls-1" d="M271.97,43.32h-13.14V1.32h13.14c13.14,0,15.78,9.18,15.78,20.94s-2.64,21.06-15.78,21.06ZM271.97,6.24h-7.86v32.16h7.86c9.18,0,10.2-8.22,10.2-16.08s-1.02-16.08-10.2-16.08Z"/>
      <path class="cls-1" d="M326.21,43.32h-6l-9.24-17.46h-9v17.46h-5.28V1.32h15.72c7.92,0,13.86,3.6,13.86,12.12,0,7.14-3.9,10.86-9.54,12.06l9.48,17.82ZM301.97,21.3h10.44c5.28,0,8.58-3.42,8.58-7.86s-3.3-7.56-8.58-7.56h-10.44v15.42Z"/>
      <path class="cls-1" d="M343.19,1.32h5.94l14.4,42h-5.22l-4.32-13.14h-15.18l-4.14,13.14h-5.28l13.8-42ZM340.25,25.56h12.18l-6.24-19.02-5.94,19.02Z"/>
      <path class="cls-1" d="M374.57,43.32h-5.28V1.32h27.6v4.62h-22.32v13.08h18.36v4.62h-18.36v19.68Z"/>
      <path class="cls-1" d="M436.73,5.88h-14.4v37.44h-5.28V5.88h-14.4V1.32h34.08v4.56Z"/>
    </g>
  </g>
</svg>